<svg xmlns="http://www.w3.org/2000/svg" width="36" height="36"><defs/><g fill="#FFF"><path d="M18 36a18 18 0 110-36 18 18 0 010 36zM18 .88a17.12 17.12 0 100 34.24A17.12 17.12 0 0018 .88z"/><path d="M18 10.05a7.9 7.9 0 00-3.17 15.14 6.95 6.95 0 01.14-1.81l1.01-4.3a3.07 3.07 0 01-.25-1.26c0-1.17.68-2.05 1.52-2.05a1.06 1.06 0 011.07 1.19c0 .72-.44 1.8-.7 2.8a1.22 1.22 0 001.26 1.53c1.5 0 2.5-1.92 2.5-4.2-.01-1.72-1.19-3.04-3.3-3.04a3.74 3.74 0 00-3.87 3.78c-.03.57.16 1.12.51 1.55a.39.39 0 01.12.44l-.16.63a.27.27 0 01-.4.2c-1.1-.44-1.61-1.66-1.61-3.02 0-2.24 1.88-4.94 5.63-4.94 3.02 0 5 2.2 5 4.53 0 3.1-1.73 5.42-4.26 5.42a2.26 2.26 0 01-1.92-.97s-.44 1.82-.55 2.2a6.61 6.61 0 01-.8 1.68A7.9 7.9 0 1018 10.05"/></g></svg>