<svg width="36" height="36" viewBox="0 0 36 36" fill="none" xmlns="http://www.w3.org/2000/svg">
<path fill-rule="evenodd" clip-rule="evenodd" d="M0 18C0 27.9411 8.05887 36 18 36C27.9411 36 36 27.9411 36 18C36 8.05887 27.9411 0 18 0C8.05887 0 0 8.05887 0 18ZM0.878049 18C0.878049 8.54381 8.54381 0.878049 18 0.878049C27.4562 0.878049 35.122 8.54381 35.122 18C35.122 27.4562 27.4562 35.122 18 35.122C8.54381 35.122 0.878049 27.4562 0.878049 18Z" fill="white"/>
<path d="M26.6231 13.8837C26.5212 13.5202 26.3227 13.1911 26.0487 12.9313C25.7669 12.6636 25.4216 12.4721 25.0453 12.3749C23.637 12.0037 17.9948 12.0037 17.9948 12.0037C15.6426 11.977 13.291 12.0947 10.9532 12.3562C10.5769 12.4606 10.2322 12.6563 9.94984 12.9261C9.67237 13.1931 9.4714 13.5223 9.36641 13.883C9.11422 15.2416 8.99168 16.6211 9.00046 18.0029C8.99146 19.3835 9.1137 20.7625 9.36641 22.1229C9.46915 22.4821 9.66937 22.8098 9.94759 23.0745C10.2258 23.3392 10.5723 23.5304 10.9532 23.6317C12.3803 24.0021 17.9948 24.0021 17.9948 24.0021C20.3499 24.0289 22.7045 23.9112 25.0453 23.6497C25.4216 23.5524 25.7669 23.3609 26.0487 23.0932C26.3226 22.8336 26.5209 22.5044 26.6223 22.1409C26.8811 20.7828 27.007 19.4027 26.998 18.0202C27.0175 16.6318 26.8918 15.2452 26.6231 13.883V13.8837ZM16.201 20.5706V15.436L20.8954 18.0037L16.201 20.5706Z" fill="white"/>
</svg>
