<svg id="fondo" xmlns="http://www.w3.org/2000/svg" xmlns:xlink="http://www.w3.org/1999/xlink" viewBox="0 0 672.9 420.9"><defs><style>.cls-1,.cls-3{opacity:0.1;}.cls-2{fill:url(#linear-gradient);}.cls-3{isolation:isolate;fill:url(#linear-gradient-2);}.cls-4{fill:#fff;}</style><linearGradient id="linear-gradient" x1="396.03" y1="-763.24" x2="396.03" y2="-342.74" gradientTransform="matrix(1, 0, 0, -1, -59.58, -342.74)" gradientUnits="userSpaceOnUse"><stop offset="0" stop-color="#231f20"/><stop offset="0.05" stop-color="#444142"/><stop offset="0.14" stop-color="#7c7a7b"/><stop offset="0.22" stop-color="#abaaaa"/><stop offset="0.31" stop-color="#d0cfcf"/><stop offset="0.38" stop-color="#eae9e9"/><stop offset="0.45" stop-color="#f9f9f9"/><stop offset="0.5" stop-color="#fff"/><stop offset="0.6" stop-color="#fcfcfc"/><stop offset="0.67" stop-color="#f3f3f3"/><stop offset="0.73" stop-color="#e4e3e4"/><stop offset="0.78" stop-color="#cecdce"/><stop offset="0.83" stop-color="#b2b1b1"/><stop offset="0.88" stop-color="#908e8f"/><stop offset="0.93" stop-color="#676565"/><stop offset="0.97" stop-color="#3a3637"/><stop offset="0.99" stop-color="#231f20"/></linearGradient><linearGradient id="linear-gradient-2" x1="754.59" y1="1059.95" x2="277.02" y2="1537.52" gradientTransform="translate(-59.58 -1013.2)" gradientUnits="userSpaceOnUse"><stop offset="0" stop-color="#231f20"/><stop offset="0.5" stop-color="#fff"/><stop offset="1" stop-color="#231f20"/></linearGradient></defs><title>sephora</title><g id="fondo-2"><g id="Layer_1" data-name="Layer 1"><path d="M20.2,0.4H652.7c11.2,0,20.2,11.3,20.2,25.2V395.7c0,14-9,25.2-20.2,25.2H20.2C9,420.9,0,409.6,0,395.7V25.6C0,11.6,9,.4,20.2.4Z" transform="translate(0 0)"/></g></g><g id="Layer_1-3" data-name="Layer 1-3" class="cls-1"><path class="cls-2" d="M20.2,0H652.7c11.2,0,20.2,11.3,20.2,25.2V395.3c0,14-9,25.2-20.2,25.2H20.2C9,420.5,0,409.3,0,395.3V25.2C0,11.3,9,0,20.2,0Z" transform="translate(0 0)"/></g><path class="cls-3" d="M11.9,404.3c331.6,0,607-142.1,660.9-328.9V396.7A23.86,23.86,0,0,1,649,420.5H22.6A24.11,24.11,0,0,1,0,404.2C4,404.3,7.9,404.3,11.9,404.3Z" transform="translate(0 0)"/><path class="cls-4" d="M136.8,207.3l-4.8-2.4c-4.9-2.4-9.2-4.8-8.3-9.8,1.2-6.2,5.5-7.5,8.7-7.5,2.8,0,6.2,1.5,8.4,2.6a17.1,17.1,0,0,1,2.3,1.3l1.6-7.9a23.09,23.09,0,0,0-6.1-3c-3-.9-15.5-3.2-21.6,8-6.7,12.2,2.6,19.9,10.2,24,0.1,0,.1.1,0.2,0.1,6.2,3.3,13.9,6.2,12.7,12.8-1.1,6.2-6.7,7.3-9.9,7.3-4.5,0-12.2-4.4-12.2-4.4l-2.7,8.4a21.9,21.9,0,0,0,5.9,3c3,0.9,18.3,3.4,24.5-7.8C152.3,219.8,144.4,211.4,136.8,207.3Z" transform="translate(0 0)"/><polygon class="cls-4" points="184.4 190 211 190 211 181.5 175.5 181.5 175.5 239.2 211 239.2 211 230.7 184.4 230.7 184.4 213.3 203.1 213.3 203.1 204.8 184.4 204.8 184.4 190"/><path class="cls-4" d="M257.6,181.5H243v57.7h8.3V215.4h13.1s15.8,0.1,15.8-17.6C280.2,180.6,257.6,181.5,257.6,181.5Zm7.3,27.8H251.3V188.2h9.4s12.3-.1,12.3,10.6A10.26,10.26,0,0,1,264.9,209.3Z" transform="translate(0 0)"/><polygon class="cls-4" points="344 204.1 314.2 204.1 314.2 181.5 305.3 181.5 305.3 239.2 314.2 239.2 314.2 212.6 344 212.6 344 239.2 352.9 239.2 352.9 181.3 344 181.3 344 204.1"/><path class="cls-4" d="M407.8,180.8a29.7,29.7,0,1,0,29.7,29.7,29.7,29.7,0,0,0-29.7-29.7h0Zm0,50.8a21.1,21.1,0,1,1,21.1-21.1,21,21,0,0,1-21.1,21.1h0Z" transform="translate(0 0)"/><g id="_Compound_Path_" data-name=" Compound Path "><path class="cls-4" d="M489.3,213s10.3-2.4,10.3-15.8c0-17.1-19.4-15.8-19.4-15.8H463.5v57.7h8.3V214h8.8l17.8,25.1h9.7Zm-17.6-5.1V188.2h9.4s11.2-.1,11.2,10.6c0,7.5-7.3,9.1-7.3,9.1H471.7Z" transform="translate(0 0)"/></g><path class="cls-4" d="M557,181.3h-7.6L529,239.2h7.6l4.9-14h23.3l5.1,14h7.6Zm-14,39.2,8.3-28.4h2l10.1,28.4H543Z" transform="translate(0 0)"/></svg>