<?xml version="1.0" encoding="utf-8"?>
<!-- Generator: Adobe Illustrator 23.1.1, SVG Export Plug-In . SVG Version: 6.00 Build 0)  -->
<svg version="1.1" id="Layer_1" xmlns="http://www.w3.org/2000/svg" xmlns:xlink="http://www.w3.org/1999/xlink" x="0px" y="0px"
	 viewBox="0 0 672.9 420.5" style="enable-background:new 0 0 672.9 420.5;" xml:space="preserve">
<style type="text/css">
	.st0{fill:#1A75CF;}
	.st1{opacity:0.15;}
	.st2{fill:url(#SVGID_1_);}
	.st3{opacity:0.1;fill:url(#SVGID_2_);enable-background:new    ;}
	.st4{fill:#FFFFFF;}
	.st5{fill:#FDBB30;}
</style>
<title>walmart</title>
<g id="fondo">
	<g id="Layer_1-2">
		<path class="st0" d="M20.2,0h632.5c11.2,0,20.2,11.3,20.2,25.2v370.1c0,14-9,25.2-20.2,25.2H20.2C9,420.5,0,409.2,0,395.3V25.2
			C0,11.2,9,0,20.2,0z"/>
	</g>
</g>
<g id="Layer_1-3" class="st1">
	
		<linearGradient id="SVGID_1_" gradientUnits="userSpaceOnUse" x1="395.93" y1="-713.24" x2="395.93" y2="-292.74" gradientTransform="matrix(1 0 0 -1 -59.48 -292.74)">
		<stop  offset="0" style="stop-color:#231F20"/>
		<stop  offset="5.000000e-02" style="stop-color:#444142"/>
		<stop  offset="0.14" style="stop-color:#7C7A7B"/>
		<stop  offset="0.22" style="stop-color:#ABAAAA"/>
		<stop  offset="0.31" style="stop-color:#D0CFCF"/>
		<stop  offset="0.38" style="stop-color:#EAE9E9"/>
		<stop  offset="0.45" style="stop-color:#F9F9F9"/>
		<stop  offset="0.5" style="stop-color:#FFFFFF"/>
		<stop  offset="0.6" style="stop-color:#FCFCFC"/>
		<stop  offset="0.67" style="stop-color:#F3F3F3"/>
		<stop  offset="0.73" style="stop-color:#E4E3E4"/>
		<stop  offset="0.78" style="stop-color:#CECDCE"/>
		<stop  offset="0.83" style="stop-color:#B2B1B1"/>
		<stop  offset="0.88" style="stop-color:#908E8F"/>
		<stop  offset="0.93" style="stop-color:#676565"/>
		<stop  offset="0.97" style="stop-color:#3A3637"/>
		<stop  offset="0.99" style="stop-color:#231F20"/>
	</linearGradient>
	<path class="st2" d="M20.2,0h632.5c11.2,0,20.2,11.3,20.2,25.2v370.1c0,14-9,25.2-20.2,25.2H20.2C9,420.5,0,409.3,0,395.3V25.2
		C0,11.3,9,0,20.2,0z"/>
</g>
<linearGradient id="SVGID_2_" gradientUnits="userSpaceOnUse" x1="754.5533" y1="1009.9634" x2="276.9834" y2="1487.5333" gradientTransform="matrix(1 0 0 1 -59.48 -963.2)">
	<stop  offset="0" style="stop-color:#231F20"/>
	<stop  offset="0.5" style="stop-color:#FFFFFF"/>
	<stop  offset="1" style="stop-color:#231F20"/>
</linearGradient>
<path class="st3" d="M12,404.3c331.6,0,607-142.1,660.9-328.9v321.3c0,13.1-10.6,23.7-23.8,23.8H22.6c-10.2-0.1-19.3-6.6-22.6-16.3
	C4.1,404.3,8,404.3,12,404.3z"/>
<path id="path2986" class="st4" d="M332.1,226.3c-5.2,23.7-31.6-1-7.7-6.1C335,217.8,331.6,221.6,332.1,226.3
	C332.1,226.3,332.1,226.3,332.1,226.3z M346.7,213.4c1-27.4-29.3-26-43-18.1c0.3,1.1,2.8,9.4,2.8,9.7c9.2-5.8,26.1-6.4,25,5
	c-54.2-0.3-29.6,55.7,1.6,30.3c0.7,1.9,3.7,8.3,14.4,5.3C346.1,237.8,346.7,221.3,346.7,213.4"/>
<path id="path2988" class="st4" d="M42.4,173.7c16.1,59.1,11.6,77.6,33.8,71.7c4.4-17.9,9.8-39,12.8-54.2c8,42.6,7.2,60,27.3,54.1
	c1.3-5,18.9-71.5,18.9-71.6c-1.2,0.4-17.7-0.7-15.4,0.4c-4.1,19.8-8.4,39-11,55.1c-13.4-67.7-8.7-53.9-18.7-55.4
	c-7.1,0.2-8.9-0.5-8.7,0.7c-4.9,20.8-9.3,39.5-12.4,55.1C55.6,158.5,63.8,175.9,42.4,173.7"/>
<path id="path2990" class="st4" d="M164.2,226.3c-6.3,24.2-32.2-2.3-6.3-6.4C167,217.8,163.6,222.7,164.2,226.3L164.2,226.3z
	 M178.8,213.4c1-27.4-29.3-26-43-18.1c0.3,1.1,2.8,9.4,2.8,9.7c9.2-5.8,26.2-6.5,25.1,5c-54.2-0.3-29.6,55.7,1.6,30.3
	c0.7,1.9,3.7,8.3,14.4,5.3C178.3,237.8,178.9,221.3,178.8,213.4"/>
<path id="path2992" class="st4" d="M203.1,230.3v-56.6h-14.6v71.8h14.6V230.3"/>
<path id="path2994" class="st4" d="M394,173.7c0.9,9.1-2.3,57.7,2.4,65.8c2.6,7.8,18.8,8.9,24.4,5.2c0-2.1-0.2-10.7-0.2-11
	c-17.9,6.1-10.9-20-12.2-29.4h12.7v-13.8h-12.7v-17L394,173.7"/>
<path id="path2996" class="st4" d="M356.4,191.6v54h15c1.5-13.8-7.2-45.4,16.6-40.8c0,0.1,0-12.5,0-14c-5.4-2.6-15,2.8-18.4,11
	v-10.2L356.4,191.6"/>
<path id="path2998" class="st4" d="M213.3,191.6v54H228c1.6-10.3-6.1-44.8,10.8-42.9c13.1,1.1,5.6,35.2,7.5,42.9h14.6
	c1.3-7.6-3.5-36.2,4-41.2c21.3-11.9,12.7,31.8,14.4,41.2h14.7c1.5-34.3,1.2-72.9-36.4-46.7c-7.3-13.9-25.5-8.4-30.2,0.1v-7.4
	L213.3,191.6"/>
<path id="path2974" class="st5" d="M541.3,181.7c11.8,3.2,15.3-57.4,7.1-57.1C518.9,107.1,529.3,185.3,541.3,181.7"/>
<path id="path2976" class="st5" d="M516.6,196c8.6-8.6-42-42-46-34.7C440.9,177.8,513.5,208.3,516.6,196"/>
<path id="path2978" class="st5" d="M566,196c3.3,11.5,60.1-15.2,52.6-25.1C617.3,141.4,556.6,187.6,566,196"/>
<path id="path2980" class="st5" d="M541.3,238.8c11.8-3.3,15.3,57.4,7.1,57.1C519,313.5,529.3,235.3,541.3,238.8"/>
<path id="path2982" class="st5" d="M566,224.5c4.1-11.8,65.5,16.4,50.9,29.4C611.7,273.2,557.1,232.8,566,224.5"/>
<path id="path2984" class="st5" d="M516.6,224.5c8.2,9.3-38.2,37.3-43.1,36C436.5,244.7,513.7,211.7,516.6,224.5"/>
</svg>
