<?xml version="1.0" encoding="utf-8"?>
<!-- Generator: Adobe Illustrator 22.1.0, SVG Export Plug-In . SVG Version: 6.00 Build 0)  -->
<svg version="1.1" id="Layer_1" xmlns="http://www.w3.org/2000/svg" xmlns:xlink="http://www.w3.org/1999/xlink" x="0px" y="0px"
	 viewBox="0 0 673.8 420.5" style="enable-background:new 0 0 673.8 420.5;" xml:space="preserve">
<style type="text/css">
	.st0{fill:#067655;}
	.st1{opacity:0.1;}
	.st2{fill:url(#SVGID_1_);}
	.st3{opacity:0.1;fill:url(#SVGID_2_);enable-background:new    ;}
	.st4{fill:none;}
	.st5{fill:#FFFFFF;}
</style>
<title>starbucks</title>
<g>
	<g id="Layer_1_1_">
		<g id="fondo">
			<g id="Layer_1-2">
				<path class="st0" d="M20.4,0h632.5c11.2,0,20.2,11.3,20.2,25.2v370.1c0,14-9,25.2-20.2,25.2H20.4c-11.2,0-20.2-11.3-20.2-25.2
					V25.2C0.2,11.2,9.2,0,20.4,0z"/>
			</g>
		</g>
		<g id="Layer_1-3" class="st1">
			
				<linearGradient id="SVGID_1_" gradientUnits="userSpaceOnUse" x1="396.78" y1="204.7046" x2="396.78" y2="-215.7954" gradientTransform="matrix(1 0 0 1 -59.53 215.7954)">
				<stop  offset="0" style="stop-color:#231F20"/>
				<stop  offset="5.000000e-02" style="stop-color:#444142"/>
				<stop  offset="0.14" style="stop-color:#7C7A7B"/>
				<stop  offset="0.22" style="stop-color:#ABAAAA"/>
				<stop  offset="0.31" style="stop-color:#D0CFCF"/>
				<stop  offset="0.38" style="stop-color:#EAE9E9"/>
				<stop  offset="0.45" style="stop-color:#F9F9F9"/>
				<stop  offset="0.5" style="stop-color:#FFFFFF"/>
				<stop  offset="0.6" style="stop-color:#FCFCFC"/>
				<stop  offset="0.67" style="stop-color:#F3F3F3"/>
				<stop  offset="0.73" style="stop-color:#E4E3E4"/>
				<stop  offset="0.78" style="stop-color:#CECDCE"/>
				<stop  offset="0.83" style="stop-color:#B2B1B1"/>
				<stop  offset="0.88" style="stop-color:#908E8F"/>
				<stop  offset="0.93" style="stop-color:#676565"/>
				<stop  offset="0.97" style="stop-color:#3A3637"/>
				<stop  offset="0.99" style="stop-color:#231F20"/>
			</linearGradient>
			<path class="st2" d="M21,0h632.5c11.2,0,20.2,11.3,20.2,25.2v370.1c0,14-9,25.2-20.2,25.2H21c-11.2,0-20.2-11.2-20.2-25.2V25.2
				C0.9,11.3,9.9,0,21,0z"/>
		</g>
		
			<linearGradient id="SVGID_2_" gradientUnits="userSpaceOnUse" x1="754.5412" y1="-592.4868" x2="276.9713" y2="-1070.0566" gradientTransform="matrix(1 0 0 -1 -59.53 -545.7354)">
			<stop  offset="0" style="stop-color:#231F20"/>
			<stop  offset="0.5" style="stop-color:#FFFFFF"/>
			<stop  offset="1" style="stop-color:#231F20"/>
		</linearGradient>
		<path class="st3" d="M11.9,404.3c331.6,0,607-142.1,660.9-328.9v321.3c0,13.1-10.6,23.7-23.8,23.8H22.6
			c-10.2-0.1-19.3-6.6-22.6-16.3C4,404.3,7.9,404.3,11.9,404.3z"/>
	</g>
</g>
<rect x="62.8" y="174.3" class="st4" width="548.2" height="71.8"/>
<g>
	<path class="st5" d="M103,222.8c0-2.9-4.2-3.6-11.1-5.7c-8.7-2.6-19.8-6.6-19.8-18.7c0-11.7,8.1-19.2,24.3-19.2
		c10.6,0,18.2,2.3,24,5.2l-2.9,15.3c-6.7-3.3-14.7-5.4-20.9-5.4c-3.7,0-5.7,0.8-5.7,3.1c0,2.8,5.7,4.2,11.6,5.7
		c9.4,2.6,19.3,6.8,19.3,18.2c0,11.9-8.9,20.1-26.1,20.1c-9.9,0-19-2.4-24.4-5.3l2.9-15.3c6.5,3.1,14.3,5.5,21.9,5.5
		C100.1,226.3,103,225.4,103,222.8z"/>
	<path class="st5" d="M162,239.9h-18.7v-44.1h-18v-15.3h54.6v15.3h-18V239.9z"/>
	<path class="st5" d="M221,239.9l-3.7-11.1h-20.1l-3.5,11.1h-18.4l20.4-59.4h23.9l20.1,59.4H221z M200.8,214.8h12.9l-6.3-20.8
		L200.8,214.8z"/>
	<path class="st5" d="M245.1,239.9v-59.4H272c16.6,0,25.3,7.6,25.3,19.5c0,7.6-3.6,14-11.6,17.1l14.7,22.8h-20.7l-10.6-18.1
		l-5.2,0.5v17.6H245.1z M277.9,201.4c0-4.5-2.5-6.6-9.3-6.6h-5.1v14.3l6.5-0.1C275.6,208.3,277.9,206.2,277.9,201.4z"/>
	<path class="st5" d="M361.3,222.5c0,9.2-4.2,17.5-25.1,17.5h-28.9v-59.4h28.8c19.5,0,23.4,7,23.4,15.4c0,7.1-4.4,10.9-11.5,12.7
		C355.5,209.7,361.3,214.9,361.3,222.5z M333.7,193.9h-8.4V205h7.8c5,0,7.6-1.9,7.6-5.7C340.7,195.7,338.4,193.9,333.7,193.9z
		 M333.9,215.5h-8.6v11.1h8.7c5.7,0,8.3-1.7,8.3-5.6C342.4,217,339.2,215.5,333.9,215.5z"/>
	<path class="st5" d="M396,241.4c-15.8,0-27.7-6.8-27.7-24.8v-36H387v33.7c0,8,2.8,11.7,9.2,11.7c6.2,0,8.7-2.9,8.7-11.2v-34.2h18.6
		V215C423.6,233.4,412.2,241.4,396,241.4z"/>
	<path class="st5" d="M465.3,194.8c-9.1,0-14.6,5.8-14.6,15.3c0,9.6,5,15.6,14.6,15.6c5.6,0,10.5-1.6,15.1-4.4l4.1,16.1
		c-4.7,2.3-13.1,4-20.1,4c-19.9,0-32.5-10.4-32.5-30.9c0-19.3,12.5-31.4,33.3-31.4c7.6,0,14.4,1.6,20.1,4.2l-5.6,15.5
		C475.5,196.4,470.2,194.8,465.3,194.8z"/>
	<path class="st5" d="M528.6,180.6h21l-21.4,28.8l22,30.6h-22l-16.6-25.1h-0.1v25.1h-18.7v-59.4h18.7v25.2h0.1L528.6,180.6z"/>
	<path class="st5" d="M583.9,222.8c0-2.9-4.2-3.6-11.1-5.7c-8.7-2.6-19.8-6.6-19.8-18.7c0-11.7,8.1-19.2,24.3-19.2
		c10.6,0,18.2,2.3,24,5.2l-2.9,15.3c-6.7-3.3-14.7-5.4-20.9-5.4c-3.7,0-5.7,0.8-5.7,3.1c0,2.8,5.7,4.2,11.6,5.7
		c9.4,2.6,19.3,6.8,19.3,18.2c0,11.9-8.9,20.1-26.1,20.1c-9.9,0-19-2.4-24.4-5.3l2.9-15.3c6.5,3.1,14.3,5.5,21.9,5.5
		C581.1,226.3,583.9,225.4,583.9,222.8z"/>
</g>
</svg>
