<?xml version="1.0" encoding="utf-8"?>
<!-- Generator: Adobe Illustrator 23.1.1, SVG Export Plug-In . SVG Version: 6.00 Build 0)  -->
<svg version="1.1" id="Layer_1" xmlns="http://www.w3.org/2000/svg" xmlns:xlink="http://www.w3.org/1999/xlink" x="0px" y="0px"
	 viewBox="0 0 675 420.5" style="enable-background:new 0 0 675 420.5;" xml:space="preserve">
<style type="text/css">
	.st0{fill:#CC0000;}
	.st1{opacity:0.2;}
	.st2{fill:url(#SVGID_1_);}
	.st3{opacity:0.1;fill:url(#SVGID_2_);enable-background:new    ;}
	.st4{fill:#FFFFFF;}
</style>
<title>target</title>
<g id="fondo">
	<g id="Layer_1-2">
		<path class="st0" d="M22.3,0h632.5C666,0,675,11.3,675,25.2v370.1c0,14-9,25.2-20.2,25.2H22.3c-11.2,0-20.2-11.3-20.2-25.2V25.2
			C2.1,11.2,11.1,0,22.3,0z"/>
	</g>
</g>
<g id="Layer_1-3" class="st1">
	
		<linearGradient id="SVGID_1_" gradientUnits="userSpaceOnUse" x1="393.89" y1="-713.24" x2="393.89" y2="-292.74" gradientTransform="matrix(1 0 0 -1 -57.44 -292.74)">
		<stop  offset="0" style="stop-color:#231F20"/>
		<stop  offset="5.000000e-02" style="stop-color:#444142"/>
		<stop  offset="0.14" style="stop-color:#7C7A7B"/>
		<stop  offset="0.22" style="stop-color:#ABAAAA"/>
		<stop  offset="0.31" style="stop-color:#D0CFCF"/>
		<stop  offset="0.38" style="stop-color:#EAE9E9"/>
		<stop  offset="0.45" style="stop-color:#F9F9F9"/>
		<stop  offset="0.5" style="stop-color:#FFFFFF"/>
		<stop  offset="0.6" style="stop-color:#FCFCFC"/>
		<stop  offset="0.67" style="stop-color:#F3F3F3"/>
		<stop  offset="0.73" style="stop-color:#E4E3E4"/>
		<stop  offset="0.78" style="stop-color:#CECDCE"/>
		<stop  offset="0.83" style="stop-color:#B2B1B1"/>
		<stop  offset="0.88" style="stop-color:#908E8F"/>
		<stop  offset="0.93" style="stop-color:#676565"/>
		<stop  offset="0.97" style="stop-color:#3A3637"/>
		<stop  offset="0.99" style="stop-color:#231F20"/>
	</linearGradient>
	<path class="st2" d="M20.2,0h632.5c11.2,0,20.2,11.3,20.2,25.2v370.1c0,14-9,25.2-20.2,25.2H20.2C9,420.5,0,409.3,0,395.3V25.2
		C0,11.3,9,0,20.2,0z"/>
</g>
<linearGradient id="SVGID_2_" gradientUnits="userSpaceOnUse" x1="754.5433" y1="1009.9534" x2="276.9734" y2="1487.5233" gradientTransform="matrix(1 0 0 1 -57.44 -963.2)">
	<stop  offset="0" style="stop-color:#231F20"/>
	<stop  offset="0.5" style="stop-color:#FFFFFF"/>
	<stop  offset="1" style="stop-color:#231F20"/>
</linearGradient>
<path class="st3" d="M14,404.3c331.6,0,607-142.1,660.9-328.9v321.3c0,13.1-10.6,23.7-23.8,23.8H24.7c-10.2-0.1-19.3-6.6-22.6-16.3
	C6.1,404.3,10,404.3,14,404.3z"/>
<path class="st4" d="M336.5,251.3c-42.9,0-77.6-34.8-77.6-77.6s34.8-77.6,77.6-77.6s77.6,34.8,77.6,77.6c0,0,0,0,0,0l0,0
	C414,216.6,379.3,251.3,336.5,251.3L336.5,251.3L336.5,251.3 M336.5,57.3c-64.3,0-116.4,52.1-116.4,116.4S272.2,290,336.4,290
	s116.4-52.1,116.4-116.4c0,0,0,0,0,0l0,0C452.8,109.4,400.7,57.3,336.5,57.3L336.5,57.3z"/>
<path class="st4" d="M336.5,133.8c-22,0-39.8,17.9-39.8,39.9c0,22,17.9,39.8,39.9,39.8s39.8-17.9,39.8-39.9
	c0-21.9-17.8-39.7-39.8-39.8H336.5"/>
<polyline class="st4" points="230.8,319.5 217.8,319.5 217.8,311.5 253.2,311.5 253.2,319.5 240.3,319.5 240.3,354.8 230.8,354.8 
	230.8,319.5 "/>
<path class="st4" d="M249.1,354.8h9.6l3.4-9.6h16.2l3.3,9.6h9.9l-16.2-43.3h-9.8L249.1,354.8 M270.3,322.2h0.1l5.5,15.9h-11.2
	L270.3,322.2z"/>
<path class="st4" d="M295.2,354.8h9.5v-16.9h9.5c4.8,0,6.5,2,7.2,6.5c0.5,3.5,0.4,7.6,1.5,10.4h9.5c-1.7-2.4-1.6-7.5-1.8-10.2
	c-0.3-4.4-1.6-8.9-6.3-10.1v-0.1c4.8-1.9,6.9-5.8,6.9-10.9c0-6.5-4.9-11.9-12.7-11.9h-23.3V354.8 M304.8,318.9h10.4
	c4.2,0,6.5,1.8,6.5,6c0,4.4-2.3,6.2-6.5,6.2h-10.4L304.8,318.9L304.8,318.9z"/>
<path class="st4" d="M369,349.9c-2.8,3.8-7.2,6-11.9,6c-13.4,0-21.3-10-21.3-22.5c0-12.8,7.9-22.8,21.3-22.8
	c8.8,0,17.2,5.5,18.2,15.3h-9.1c-0.8-4.4-4.7-7.5-9.1-7.3c-8.5,0-11.8,7.3-11.8,14.8c0,7.2,3.2,14.5,11.8,14.5
	c6.2,0,9.8-3.3,10.3-9.3h-9.6v-7.1H376v23.4h-6L369,349.9"/>
<polyline class="st4" points="382.6,311.5 414.9,311.5 414.9,319.5 392.1,319.5 392.1,328.8 413,328.8 413,336.2 392.1,336.2 
	392.1,346.8 415.4,346.8 415.4,354.8 382.6,354.8 382.6,311.5 "/>
<polyline class="st4" points="432.6,319.5 419.6,319.5 419.6,311.5 455.1,311.5 455.1,319.5 442.1,319.5 442.1,354.8 432.6,354.8 
	432.6,319.5 "/>
</svg>
